<svg xmlns="http://www.w3.org/2000/svg" viewBox="0 0 223.64 213.98"><defs><style>.cls-1{opacity:0.5;}.cls-2{fill:#9afc97;}.cls-3{fill:#403126;}.cls-4,.cls-7{fill:none;stroke:#403126;stroke-linecap:round;stroke-linejoin:round;}.cls-4{stroke-width:4px;}.cls-5{fill:#ebffe9;}.cls-6{fill:#26c11a;}.cls-7{stroke-width:3px;}.cls-8{fill:#e0ffde;}.cls-9{fill:#fff;}</style></defs><title>Asset 13</title><g id="Layer_2" data-name="Layer 2"><g id="Layer_1-2" data-name="Layer 1"><g class="cls-1"><circle class="cls-2" cx="110.7" cy="108.72" r="105.26"/></g><path class="cls-3" d="M66.3,17.34c3.12,5-3.8,10.54-7.48,5.64-2.29-3-7.51-.06-5.18,3,3.48,4.63,9.68,6.41,14.77,3.07a10.81,10.81,0,0,0,3.07-14.76c-2-3.28-7.23-.27-5.18,3Z"/><line class="cls-4" x1="66.89" y1="26.49" x2="73.01" y2="34.56"/><path class="cls-3" d="M113.06,210c.35-6,9-5.95,9.34.06.19,3.85,6.19,3.87,6,0-.29-5.79-4.62-10.66-10.64-10.7s-10.37,4.88-10.7,10.64c-.23,3.86,5.78,3.85,6,0Z"/><line class="cls-4" x1="117.76" y1="202.33" x2="117.31" y2="192.22"/><path class="cls-3" d="M219.64,95.63c-7.75.79-14,6.7-13.73,14.82s7.1,13.69,14.83,13.73c3.86,0,3.86-6,0-6-10.6-.06-11.82-15.45-1.1-16.55,3.8-.39,3.84-6.4,0-6Z"/><line class="cls-4" x1="208.91" y1="110.45" x2="194.02" y2="110.45"/><path class="cls-3" d="M96.42,4c.8,7.74,6.7,14,14.82,13.72S124.93,10.63,125,2.9c0-3.86-6-3.87-6,0,0,10.6-15.45,11.82-16.55,1.1C102,.19,96,.15,96.42,4Z"/><line class="cls-4" x1="111.24" y1="14.72" x2="111.24" y2="29.62"/><path class="cls-3" d="M42.55,63.48,25.89,52.81c-3.26-2.09-6.27,3.1-3,5.18L39.52,68.66c3.27,2.09,6.28-3.1,3-5.18Z"/><path class="cls-3" d="M19.87,41.6A8.31,8.31,0,1,1,9.76,54.8c-3.17-2.22-6.17,3-3,5.18a14.41,14.41,0,0,0,19.7-2.85,14.41,14.41,0,0,0-2.32-19.77c-2.94-2.46-7.21,1.76-4.24,4.24Z"/><path class="cls-3" d="M162.83,53.91l8.41-13.12c2.08-3.26-3.11-6.27-5.18-3l-8.41,13.12c-2.09,3.27,3.1,6.28,5.18,3Z"/><path class="cls-3" d="M179.06,35.27a5.91,5.91,0,1,1-9.39-7.19c2.22-3.17-3-6.17-5.19-3A11.88,11.88,0,0,0,183.3,39.52c2.47-3-1.76-7.21-4.24-4.25Z"/><path class="cls-3" d="M172.73,156.2l12.37,9.49c1.29,1,3.34.19,4.1-1.08a3.07,3.07,0,0,0-1.08-4.1L175.76,151c-1.29-1-3.35-.19-4.1,1.08a3.06,3.06,0,0,0,1.07,4.1Z"/><path class="cls-3" d="M189.54,173.63c-5.36-5.3,1.88-13.83,7.75-8.9,2.93,2.47,7.2-1.75,4.24-4.24-4.92-4.13-12.26-4.36-16.81.58a12.06,12.06,0,0,0,.58,16.8c2.75,2.72,7-1.52,4.24-4.24Z"/><path class="cls-3" d="M62,170.42l-9.49,12.36c-1,1.29-.19,3.35,1.08,4.1a3.06,3.06,0,0,0,4.1-1.07l9.49-12.37c1-1.29.19-3.34-1.07-4.1A3.08,3.08,0,0,0,62,170.42Z"/><path class="cls-3" d="M44.6,187.23c5.3-5.36,13.83,1.87,8.9,7.74-2.47,2.94,1.75,7.2,4.24,4.24,4.14-4.92,4.36-12.26-.58-16.8a12.06,12.06,0,0,0-16.8.57c-2.72,2.75,1.52,7,4.24,4.25Z"/><circle class="cls-5" cx="110.7" cy="109.91" r="83.31"/><circle class="cls-2" cx="110.7" cy="109.91" r="76.12"/><path class="cls-6" d="M186.93,109.91a76.12,76.12,0,0,1-138.4,43.77,76.12,76.12,0,0,0,106-106.06A76,76,0,0,1,186.93,109.91Z"/><path class="cls-3" d="M42,151.58a84.35,84.35,0,0,1-8.53-19.46c-1.09-3.69-6.88-2.12-5.78,1.6a91.16,91.16,0,0,0,9.13,20.89c2,3.31,7.16.3,5.18-3Z"/><path class="cls-3" d="M56.93,50.25A80.34,80.34,0,0,1,183.53,76c20.82,44.22-4.35,98.28-51.26,111.32C103,195.44,71.59,186,51.07,163.71c-2.63-2.84-6.86,1.41-4.24,4.24A86.32,86.32,0,0,0,192.05,81,87.2,87.2,0,0,0,142.7,29.75c-30.5-12.3-65.59-5.44-90,16.26-2.9,2.57,1.36,6.8,4.24,4.24Z"/><path class="cls-3" d="M30.8,118.22A81.78,81.78,0,0,1,48.55,59c2.41-3-1.81-7.25-4.24-4.24A87.74,87.74,0,0,0,24.8,118.22c.34,3.81,6.34,3.85,6,0Z"/><circle class="cls-4" cx="55.13" cy="95.7" r="6.25"/><path class="cls-4" d="M8.25,118.53a6.25,6.25,0,1,1,0-12.49"/><path class="cls-4" d="M211.84,67.63a6.24,6.24,0,1,1-12.43,1.2"/><circle class="cls-4" cx="117.73" cy="49.6" r="6.25"/><circle class="cls-7" cx="80.46" cy="112.29" r="4.1"/><circle class="cls-3" cx="14.39" cy="132.92" r="2.93"/><circle class="cls-3" cx="204.4" cy="143.01" r="2.93"/><circle class="cls-7" cx="152.75" cy="78.98" r="4.1"/><circle class="cls-7" cx="126.9" cy="168.02" r="4.1"/><circle class="cls-4" cx="158.99" cy="131.54" r="6.25"/><circle class="cls-4" cx="84.55" cy="149.36" r="6.25"/><circle class="cls-4" cx="130.22" cy="101.94" r="6.25"/><ellipse class="cls-8" cx="83.71" cy="77.29" rx="21.11" ry="16.2" transform="translate(-29.8 67.49) rotate(-37.78)"/><ellipse class="cls-9" cx="58.3" cy="67.63" rx="6.51" ry="5" transform="translate(-29.21 49.9) rotate(-37.78)"/></g></g></svg>